<?xml version="1.0" standalone="no"?>
<!DOCTYPE svg PUBLIC "-//W3C//DTD SVG 20010904//EN"
 "http://www.w3.org/TR/2001/REC-SVG-20010904/DTD/svg10.dtd">
<svg version="1.0" xmlns="http://www.w3.org/2000/svg"
 width="1536.000000pt" height="1536.000000pt" viewBox="0 0 1536.000000 1536.000000"
 preserveAspectRatio="xMidYMid meet">

<g transform="translate(0.000000,1536.000000) scale(0.100000,-0.100000)"
fill="#000000" stroke="none">
<path d="M6806 13629 c-120 -13 -254 -59 -308 -106 -14 -13 -20 -13 -47 1 -87
45 -283 59 -443 31 -101 -17 -262 -71 -375 -126 -193 -93 -385 -254 -631 -534
-252 -287 -484 -698 -596 -1055 -56 -180 -86 -361 -101 -616 -12 -190 25 -516
86 -762 35 -140 35 -139 -17 -374 -79 -354 -196 -609 -350 -760 -109 -106
-164 -136 -260 -142 -46 -2 -50 -6 -46 -35 3 -15 88 -31 164 -31 165 1 304 56
496 196 19 14 16 5 -18 -57 -119 -215 -207 -410 -269 -599 -96 -285 -130 -442
-152 -688 -21 -238 18 -525 102 -743 l30 -79 -144 -217 c-337 -509 -583 -901
-734 -1173 -75 -134 -253 -477 -253 -487 0 -3 23 -27 51 -53 43 -39 51 -52 46
-72 -4 -13 -120 -222 -258 -464 -626 -1095 -1040 -1864 -1158 -2152 -109 -267
-144 -418 -145 -622 -1 -275 75 -454 267 -621 82 -73 97 -88 97 -101 0 -5
-414 -8 -920 -8 l-920 0 0 -30 0 -30 1038 0 c921 0 1046 -2 1117 -16 108 -23
383 -22 524 0 93 14 260 16 1521 16 l1416 0 34 -35 c44 -46 96 -64 325 -115
399 -88 1082 -244 1625 -370 311 -72 660 -152 775 -177 l210 -47 825 3 c454 1
1448 6 2210 11 1508 10 1415 6 1517 66 44 25 90 83 116 145 8 20 45 134 81
255 37 120 71 229 76 242 l10 22 970 0 970 0 0 30 0 30 -960 0 c-528 0 -960 3
-960 6 0 8 424 1405 686 2259 117 384 147 492 147 540 1 65 -17 110 -62 158
-56 61 55 57 -1585 57 l-1504 0 -119 205 c-245 425 -403 696 -512 878 -97 163
-110 191 -99 205 7 9 34 42 60 73 33 38 48 65 48 84 0 99 -621 1059 -1077
1665 -212 282 -246 321 -540 627 -182 191 -203 215 -203 246 0 29 -14 94 -46
207 -6 22 0 19 43 -22 59 -54 140 -108 198 -130 125 -49 345 -72 377 -40 16
16 -8 42 -39 42 -64 0 -183 97 -263 215 -89 132 -202 379 -246 540 -85 309
-111 449 -134 726 -10 123 -10 131 19 270 17 79 44 191 61 249 59 204 82 354
87 585 12 492 -52 736 -381 1453 -314 685 -427 847 -762 1100 -245 185 -534
277 -788 251z m426 -1019 c60 -112 93 -205 117 -337 22 -115 40 -299 42 -423
l1 -75 25 95 c47 182 42 454 -13 669 -13 53 -24 97 -24 99 0 2 20 -20 45 -50
82 -98 226 -411 259 -565 7 -31 6 -33 -21 -33 -40 0 -116 -40 -130 -69 -26
-54 23 -89 123 -90 59 -1 64 -8 64 -93 0 -47 0 -47 -42 -58 -130 -34 -163 -46
-199 -72 -53 -38 -78 -95 -79 -175 l0 -63 -33 0 c-33 0 -33 0 -61 91 -15 50
-30 89 -33 86 -3 -4 0 -43 7 -88 6 -45 8 -85 3 -89 -4 -4 -30 -15 -57 -25 -55
-20 -61 -16 -71 45 -9 53 -46 111 -84 134 -29 17 -51 20 -126 19 -84 -2 -332
-39 -415 -63 -61 -17 -64 -12 -25 38 77 96 140 154 195 178 60 27 100 60 100
81 0 8 -12 25 -26 38 l-26 24 45 103 c69 155 119 325 133 447 13 116 24 61 24
-120 0 -211 -14 -320 -70 -546 -21 -87 -37 -159 -35 -161 8 -8 86 110 125 188
55 110 123 318 146 445 19 109 26 431 11 540 l-8 60 34 -50 c18 -27 54 -88 79
-135z m662 -519 c41 -102 112 -348 104 -357 -9 -8 -219 -37 -225 -31 -3 3 3
37 13 76 17 71 17 71 55 77 21 4 46 15 55 25 17 18 15 21 -28 62 l-45 44 -6
149 -6 149 25 -54 c13 -30 40 -93 58 -140z m-1394 -187 c-47 -120 -54 -132
-106 -178 -49 -43 -55 -53 -51 -79 3 -22 -4 -45 -25 -80 -48 -82 -69 -127 -58
-127 5 0 43 40 85 88 73 86 76 89 132 99 32 6 59 10 61 8 2 -1 -27 -43 -64
-92 -53 -71 -75 -92 -111 -107 -62 -26 -103 -63 -125 -114 -11 -24 -29 -47
-41 -51 -12 -5 -96 -27 -187 -49 -91 -23 -176 -44 -190 -48 -16 -4 -2 11 40
43 244 188 452 427 622 714 35 58 64 105 66 104 2 -1 -20 -60 -48 -131z m1535
-316 c14 -63 62 -362 80 -505 8 -65 13 -63 -178 -93 -263 -41 -350 -24 -393
80 -23 53 -74 263 -81 330 -11 114 37 170 177 204 56 13 100 21 270 49 14 2
44 5 67 6 l41 1 17 -72z m-975 -146 c35 -36 46 -76 61 -223 12 -131 1 -266
-26 -320 -24 -45 -102 -76 -273 -110 -159 -32 -294 -46 -336 -35 -49 12 -103
72 -125 139 -29 88 -61 269 -61 348 0 65 1 69 36 97 54 45 180 80 454 125 14
2 74 5 133 6 107 1 109 1 137 -27z m327 -148 c24 -7 53 -65 77 -161 60 -231
139 -265 473 -207 81 14 155 26 163 27 13 2 15 -28 14 -218 -2 -489 -112 -915
-301 -1171 -135 -181 -343 -315 -543 -350 -164 -28 -324 -7 -525 71 -210 81
-324 152 -508 318 -120 109 -315 363 -387 506 -29 56 -32 70 -26 120 l6 56
-20 -40 c-46 -90 -105 -129 -201 -129 -55 0 -78 5 -135 34 -98 48 -218 169
-267 270 -115 233 -70 506 97 592 55 29 145 29 206 2 51 -23 148 -108 169
-148 13 -23 41 -37 41 -19 0 18 -55 95 -87 122 -20 17 -35 32 -32 34 2 3 96
21 209 42 113 20 253 49 313 64 l107 27 9 -36 c74 -286 77 -293 122 -345 48
-55 76 -65 178 -65 154 0 471 63 539 107 74 48 96 118 108 335 l7 127 39 15
c66 27 74 23 92 -46 69 -275 137 -561 133 -564 -10 -10 -150 -54 -173 -54 -19
0 -25 -4 -22 -17 8 -41 154 -16 223 39 25 20 27 25 20 72 -10 79 -119 498
-151 581 -7 16 -1 18 33 9z m-1229 -1645 c51 -57 129 -152 172 -210 123 -164
325 -333 519 -433 155 -80 389 -150 573 -171 67 -7 64 0 73 -172 9 -140 -1
-197 -48 -286 -141 -269 -513 -286 -879 -39 -88 59 -196 146 -288 231 l-65 61
68 -25 c78 -29 128 -41 229 -56 77 -11 208 -3 208 12 0 5 -10 9 -22 9 -26 0
-152 49 -195 76 -147 93 -312 315 -417 562 l-46 110 0 222 c0 173 3 221 13
218 6 -3 54 -51 105 -109z m4216 -4311 c169 -269 626 -1058 649 -1120 6 -16
-31 -18 -581 -20 -584 -3 -587 -3 -628 -25 -79 -42 -117 -106 -183 -305 -24
-71 -44 -128 -46 -128 -2 0 -72 111 -156 248 -83 136 -180 290 -215 342 -61
93 -99 182 -92 216 2 11 42 33 113 63 190 81 404 211 648 394 125 94 335 282
394 352 20 25 42 45 48 45 5 0 28 -28 49 -62z m-7154 -298 c290 -213 696 -442
1090 -612 63 -27 116 -51 118 -53 14 -14 -326 -573 -713 -1170 -103 -159 -194
-297 -201 -306 -10 -11 -49 -19 -126 -28 -146 -17 -283 -41 -548 -97 -207 -44
-250 -59 -236 -83 11 -17 49 -13 181 15 274 58 356 73 475 88 176 22 742 82
1015 106 566 51 861 83 1655 181 64 8 210 10 445 6 533 -7 717 -36 940 -146
162 -80 468 -274 530 -336 49 -48 392 -508 421 -563 20 -40 18 -89 -5 -102
-77 -41 -165 21 -411 289 -57 63 -123 126 -145 141 -22 15 -83 69 -135 121
-87 86 -247 221 -311 263 -29 19 -59 12 -59 -13 0 -9 48 -55 109 -104 227
-181 308 -272 355 -397 20 -56 113 -418 171 -671 20 -83 15 -134 -13 -170 -17
-20 -20 -21 -49 -6 -36 19 -76 65 -102 116 -27 52 -143 340 -182 451 -29 81
-42 103 -94 160 -34 36 -72 81 -85 100 -39 58 -323 340 -342 340 -10 0 -18 -2
-18 -4 0 -2 -3 -12 -6 -20 -5 -12 38 -62 148 -174 157 -160 204 -214 230 -267
36 -71 130 -374 167 -542 46 -203 50 -250 22 -284 -17 -21 -21 -22 -50 -9 -62
25 -127 130 -203 325 -20 50 -59 152 -89 229 -52 136 -54 139 -113 188 -34 28
-80 73 -103 101 -80 96 -318 287 -358 287 -27 0 -38 -22 -22 -43 7 -8 46 -39
88 -70 110 -80 224 -182 249 -223 49 -79 155 -592 135 -651 -13 -36 -45 -41
-84 -14 -35 25 -104 157 -121 231 -19 85 -88 254 -113 278 -32 30 -234 115
-287 120 -31 3 -93 -8 -195 -34 -129 -32 -166 -37 -260 -37 -192 0 -326 36
-487 129 l-80 46 -457 -196 c-251 -107 -492 -208 -536 -224 -44 -17 -119 -46
-167 -66 -349 -145 -1140 -391 -1458 -453 -123 -24 -156 -27 -375 -27 -277 0
-326 9 -489 89 -207 101 -336 260 -379 465 -60 285 -1 553 221 1005 148 300
566 1066 992 1815 136 239 266 470 290 513 24 42 46 77 48 77 2 0 53 -36 112
-80z m1375 -725 c29 -13 56 -28 59 -34 11 -18 -16 -362 -48 -606 -8 -60 -27
-238 -42 -395 -14 -157 -28 -286 -29 -288 -2 -2 -108 -13 -237 -23 -128 -11
-332 -31 -453 -43 -121 -13 -223 -20 -227 -17 -4 4 43 83 104 176 273 418 560
883 738 1193 46 81 39 79 135 37z m4641 -152 c81 -126 273 -442 294 -483 l22
-43 -68 -196 c-69 -202 -71 -207 -78 -200 -2 2 -34 146 -71 319 -53 254 -106
499 -139 643 -7 28 1 20 40 -40z m4914 -48 c30 -26 60 -92 60 -131 0 -16 -67
-248 -149 -515 -82 -266 -202 -657 -266 -869 -450 -1487 -589 -1937 -617
-1998 -23 -49 -65 -87 -125 -114 -39 -17 -98 -19 -955 -28 -502 -5 -1462 -12
-2134 -16 l-1221 -6 -21 27 c-30 38 -28 75 13 185 140 381 645 1794 921 2577
133 380 254 714 268 741 34 67 71 109 120 135 l41 22 1830 5 c2430 8 2208 9
2235 -15z m-4228 -32 c-22 -27 -51 -70 -65 -98 -13 -27 -137 -369 -275 -760
-336 -953 -424 -1198 -624 -1750 -314 -867 -330 -917 -309 -990 6 -21 9 -41 7
-43 -8 -8 -65 29 -86 55 -19 25 -22 37 -17 98 4 56 25 127 105 350 234 655
439 1227 523 1459 50 137 123 344 164 460 40 116 113 324 163 461 49 138 122
347 163 465 43 126 86 233 104 259 37 54 85 81 143 81 l43 0 -39 -47z m-562
-982 c0 -5 -48 -141 -106 -303 -59 -161 -164 -457 -235 -658 -70 -201 -128
-354 -128 -340 -1 14 4 66 10 115 5 50 16 151 24 226 11 115 18 146 43 195 44
87 116 208 179 301 34 50 53 88 50 97 -9 22 -30 20 -54 -6 -26 -28 -147 -220
-203 -322 -25 -45 -58 -88 -81 -107 -51 -40 -85 -107 -154 -310 -57 -167 -103
-264 -158 -332 -82 -104 -160 -48 -123 89 9 32 23 91 32 129 70 296 139 539
167 585 11 19 75 111 141 204 144 202 262 327 356 376 98 51 240 87 240 61z
m-600 -329 c-12 -21 -52 -80 -91 -132 -38 -52 -82 -117 -98 -145 -17 -27 -34
-56 -38 -64 -14 -23 -116 -26 -169 -6 -79 30 -109 113 -59 159 14 13 101 53
193 90 92 37 192 82 222 101 30 19 56 35 58 35 2 0 -6 -17 -18 -38z m50 -1160
c0 -21 -7 -59 -16 -84 l-15 -46 -67 -11 c-226 -36 -814 -113 -819 -107 -2 2 1
23 6 47 6 24 11 68 11 97 0 28 1 52 3 52 1 1 99 12 217 25 l215 23 25 -23 c62
-58 128 -56 197 8 47 44 79 53 191 56 l52 1 0 -38z m-4414 -18 c-4 -14 -15
-99 -25 -189 -10 -89 -22 -168 -25 -174 -5 -8 -162 -11 -548 -11 -298 0 -538
3 -535 7 4 3 100 35 214 70 225 70 611 205 788 277 133 53 139 54 131 20z
m3221 -116 c15 -24 47 -64 71 -90 45 -47 45 -47 20 -53 -13 -4 -44 -5 -69 -3
l-44 3 -12 80 c-6 44 -12 86 -12 93 -2 25 19 11 46 -30z m-334 -93 c26 -52 47
-97 47 -100 0 -4 -16 -6 -207 -30 -127 -16 -168 -28 -177 -52 -16 -41 24 -55
427 -148 199 -46 490 -114 647 -151 247 -58 302 -67 408 -72 85 -3 122 -8 119
-16 -2 -6 -12 -35 -21 -63 -10 -29 -20 -53 -22 -53 -3 0 -49 11 -102 24 -53
14 -191 46 -307 71 -115 25 -376 85 -580 131 -203 47 -640 146 -970 219 -685
153 -787 176 -782 181 8 9 992 114 1063 114 14 0 32 -17 55 -50 39 -57 79 -80
138 -80 60 0 91 43 91 124 0 34 20 46 75 46 l50 0 48 -95z m1467 22 c0 -10
-34 -103 -40 -110 -3 -4 -67 8 -140 28 -124 33 -157 44 -134 45 5 1 65 9 134
19 123 19 180 24 180 18z m-327 -103 c53 -15 95 -29 94 -31 -2 -1 -50 -9 -108
-18 l-104 -15 -127 32 c-71 18 -128 36 -128 39 0 10 160 27 221 24 30 -1 99
-15 152 -31z m-425 -46 c72 -17 132 -34 132 -38 0 -3 -48 -13 -107 -22 l-108
-17 -133 36 c-72 20 -130 39 -127 42 4 3 50 11 103 17 53 6 99 12 102 13 3 1
65 -13 138 -31z m-2075 -44 c133 -30 384 -87 557 -124 433 -95 1905 -427 1960
-443 l45 -13 7 -66 c3 -36 11 -75 18 -87 10 -20 9 -21 -12 -16 -13 2 -115 25
-228 49 -113 25 -284 63 -380 86 -337 79 -1518 349 -1820 415 -184 41 -318 75
-338 87 -18 11 -41 37 -52 59 -21 41 -27 109 -9 109 6 0 119 -25 252 -56z
m1507 -9 c50 -18 94 -19 118 -4 14 9 37 6 100 -11 46 -12 81 -25 78 -27 -3 -3
-79 -15 -169 -27 -138 -18 -172 -20 -213 -10 -27 7 -94 22 -149 35 l-100 23
115 17 c150 21 169 22 220 4z m1254 7 c7 -11 -22 -72 -34 -72 -19 0 -164 43
-174 51 -8 7 14 11 109 22 58 7 94 7 99 -1z m-261 -74 c64 -18 117 -36 117
-39 0 -4 -39 -14 -87 -23 l-88 -16 -148 36 c-82 20 -146 38 -143 41 7 8 198
40 216 37 8 -1 68 -17 133 -36z m-376 -60 c84 -23 150 -45 145 -49 -4 -3 -55
-16 -113 -27 -104 -21 -107 -21 -185 -3 -43 10 -133 31 -199 47 l-120 28 145
22 c80 12 152 22 160 23 8 1 84 -18 167 -41z m576 -58 c-8 -30 -20 -33 -69
-20 -52 15 -50 21 9 31 66 10 66 10 60 -11z m-154 -55 c46 -14 86 -27 89 -29
21 -22 -88 -51 -163 -43 -64 7 -255 49 -255 57 0 8 149 37 200 39 25 0 83 -11
129 -24z"/>
<path d="M7626 11480 c-68 -81 -58 -241 19 -309 58 -50 106 -37 145 39 19 36
17 148 -4 195 -9 22 -31 55 -48 73 -41 42 -77 43 -112 2z"/>
<path d="M6671 11325 c-18 -24 -41 -103 -41 -145 0 -96 57 -190 114 -190 61 0
96 61 96 166 0 142 -106 248 -169 169z"/>
<path d="M5300 10822 c0 -5 35 -31 78 -59 81 -53 162 -132 162 -158 0 -10 -10
-15 -31 -15 -37 0 -99 -35 -99 -56 0 -18 5 -18 33 0 33 21 80 28 111 16 26
-10 37 -28 102 -177 7 -18 21 -33 29 -33 20 0 14 42 -21 148 -54 164 -151 270
-296 323 -59 21 -68 23 -68 11z"/>
<path d="M6985 10251 c-8 -14 40 -48 103 -72 101 -39 308 -35 342 6 19 23 -5
26 -96 14 -100 -13 -176 -3 -263 37 -58 26 -77 29 -86 15z"/>
<path d="M11845 2941 c-67 -30 -141 -136 -120 -171 3 -5 35 -10 69 -10 95 0
161 37 200 112 16 31 26 64 23 72 -9 23 -120 21 -172 -3z"/>
<path d="M11430 2690 c-25 -4 -62 -15 -82 -23 -54 -23 -128 -95 -154 -152 -78
-166 40 -548 190 -616 46 -21 112 -24 170 -8 32 9 46 7 87 -10 27 -12 69 -24
93 -27 62 -9 139 29 201 98 57 63 103 140 88 145 -6 2 -32 18 -57 34 -98 65
-127 216 -61 310 18 25 51 53 80 68 28 14 52 27 54 29 11 6 -64 71 -107 93
-54 27 -181 38 -232 21 -25 -9 -39 -7 -82 12 -62 28 -125 36 -188 26z m48
-155 c14 -31 15 -55 3 -55 -20 0 -71 -63 -81 -101 -10 -38 -2 -147 15 -191 4
-9 -7 -17 -34 -24 l-40 -11 -13 51 c-20 82 -16 194 9 241 22 41 62 84 98 103
28 16 30 15 43 -13z"/>
<path d="M7204 856 c-14 -36 1 -51 66 -68 36 -9 77 -17 93 -17 23 -1 27 3 27
28 0 33 2 32 -103 56 -82 18 -76 18 -83 1z m120 -38 c21 -5 35 -12 32 -15 -8
-9 -126 18 -126 29 0 8 15 6 94 -14z"/>
<path d="M7513 794 c-3 -9 1 -30 9 -48 15 -29 23 -34 95 -49 94 -20 117 -21
131 -4 12 14 27 67 19 67 -3 0 -57 11 -121 25 -137 30 -125 29 -133 9z m209
-54 c4 0 8 -7 8 -15 0 -19 -27 -19 -110 1 -58 13 -79 26 -80 46 0 3 39 -3 87
-13 48 -10 91 -19 95 -19z"/>
<path d="M7896 732 c-3 -3 -6 -29 -6 -57 l0 -52 110 -23 c61 -13 113 -21 115
-18 3 3 8 28 12 56 l6 50 -59 12 c-33 7 -85 18 -116 25 -31 7 -59 10 -62 7z
m117 -48 c40 -9 76 -20 81 -25 19 -18 -3 -20 -60 -6 -33 8 -71 18 -86 21 -16
4 -28 11 -28 16 0 13 9 13 93 -6z"/>
<path d="M8268 629 c-22 -12 -24 -62 -4 -78 8 -7 27 -11 43 -9 24 3 28 8 31
38 5 49 -30 73 -70 49z m49 -35 c8 -22 -18 -37 -36 -20 -7 8 -10 19 -7 25 10
16 36 13 43 -5z"/>
</g>
</svg>
