<?xml version="1.0" standalone="no"?>
<!DOCTYPE svg PUBLIC "-//W3C//DTD SVG 20010904//EN"
 "http://www.w3.org/TR/2001/REC-SVG-20010904/DTD/svg10.dtd">
<svg version="1.0" xmlns="http://www.w3.org/2000/svg"
 width="447.000000pt" height="447.000000pt" viewBox="0 0 447.000000 447.000000"
 preserveAspectRatio="xMidYMid meet">

<g transform="translate(0.000000,447.000000) scale(0.100000,-0.100000)"
fill="#000000" stroke="none">
<path d="M0 2235 l0 -2235 2235 0 2235 0 0 2235 0 2235 -2235 0 -2235 0 0
-2235z m2423 1390 c420 -73 731 -331 866 -719 60 -171 61 -185 61 -1138 l0
-868 -245 0 -245 0 0 793 c0 435 -4 829 -10 874 -12 106 -63 259 -112 335 -85
131 -227 232 -365 258 -91 18 -264 9 -337 -18 -145 -53 -277 -175 -352 -327
-74 -149 -73 -136 -74 -1082 l0 -833 -245 0 -246 0 3 908 4 907 27 95 c58 198
113 312 210 436 165 207 403 346 667 387 67 11 315 6 393 -8z"/>
</g>
</svg>
