<?xml version="1.0" encoding="utf-8"?>
<!-- Generator: Adobe Illustrator 23.1.1, SVG Export Plug-In . SVG Version: 6.00 Build 0)  -->
<svg version="1.1" id="Layer_1" xmlns="http://www.w3.org/2000/svg" xmlns:xlink="http://www.w3.org/1999/xlink" x="0px" y="0px"
	 viewBox="0 0 24 24" style="enable-background:new 0 0 24 24;" xml:space="preserve">
<style type="text/css">
	.st0{fill:#F26B5B;}
</style>
<path class="st0" d="M2,9.4c0,1.9,0.8,2.9,1.7,3.9c0,1,0.1,1.7-0.3,3.2c1.7-0.6,2-0.8,3-1.4c1,0.2,1.5,0.4,2.6,0.5
	c-0.1,0.7-0.1,1.3,0.1,2c-0.8-0.1-1.5-0.2-2.3-0.4C5.3,18.1,2.2,19,0,19.4c0.8-1.6,1.7-3.8,1.7-5.3C0.6,12.7,0,11.1,0,9.4
	C0,4.5,4.7,1,10,1c5.2,0,10,3.5,10,8.3C19.4,9.1,18.7,9,18,9c-0.2-3.3-3.7-6-8-6C5.6,3,2,5.9,2,9.4z M22.9,19.5c0,1,0.6,2.4,1.1,3.5
	c-1.4-0.3-3.4-0.8-4.4-1.4c-0.8,0.2-1.5,0.3-2.2,0.3c-3.9,0-6.5-2.6-6.5-5.4c0-3.2,3.1-5.5,6.5-5.5c3.5,0,6.5,2.3,6.5,5.5
	C24,17.6,23.6,18.7,22.9,19.5z M15.3,16.5c0-0.5-0.4-0.8-0.8-0.8s-0.8,0.4-0.8,0.8s0.4,0.8,0.8,0.8S15.3,17,15.3,16.5z M18.3,16.5
	c0-0.5-0.4-0.8-0.8-0.8s-0.8,0.4-0.8,0.8s0.4,0.8,0.8,0.8S18.3,17,18.3,16.5z M21.3,16.5c0-0.5-0.4-0.8-0.8-0.8s-0.8,0.4-0.8,0.8
	s0.4,0.8,0.8,0.8S21.3,17,21.3,16.5z"/>
</svg>
